<?xml version="1.0" encoding="UTF-8"?>
<svg width="18px" height="4px" viewBox="0 0 18 4" version="1.1" xmlns="http://www.w3.org/2000/svg" xmlns:xlink="http://www.w3.org/1999/xlink">
    <!-- Generator: Sketch 51.2 (57519) - http://www.bohemiancoding.com/sketch -->
    <title>Combined Shape</title>
    <desc>Created with Sketch.</desc>
    <defs></defs>
    <g id="Page-1" stroke="none" stroke-width="1" fill="none" fill-rule="evenodd">
        <g id="书架" transform="translate(-341.000000, -218.000000)" fill="#CAC3C4">
            <g id="Group-2" transform="translate(16.000000, 180.000000)">
                <path d="M327,42 C325.895431,42 325,41.1045695 325,40 C325,38.8954305 325.895431,38 327,38 C328.104569,38 329,38.8954305 329,40 C329,41.1045695 328.104569,42 327,42 Z M334,42 C332.895431,42 332,41.1045695 332,40 C332,38.8954305 332.895431,38 334,38 C335.104569,38 336,38.8954305 336,40 C336,41.1045695 335.104569,42 334,42 Z M341,42 C339.895431,42 339,41.1045695 339,40 C339,38.8954305 339.895431,38 341,38 C342.104569,38 343,38.8954305 343,40 C343,41.1045695 342.104569,42 341,42 Z" id="Combined-Shape"></path>
            </g>
        </g>
    </g>
</svg>