<?xml version="1.0" encoding="UTF-8"?>
<svg width="16px" height="16px" viewBox="0 0 16 16" version="1.1" xmlns="http://www.w3.org/2000/svg" xmlns:xlink="http://www.w3.org/1999/xlink">
    <!-- Generator: Sketch 48.1 (47250) - http://www.bohemiancoding.com/sketch -->
    <title>icon/16/密码</title>
    <desc>Created with Sketch.</desc>
    <defs>
        <path d="M12,7 L12,4.36363636 C12,1.96363636 10.4,0 8,0 C5.6,0 4,1.82727273 4,4.22727273 L4,7 L2.18181818,7 C0.945454545,7 0,7.94545455 0,9.18181818 L0,13.8181818 C0,15.0545455 0.945454545,16 2.18181818,16 L13.8181818,16 C15.0545455,16 16,15.0545455 16,13.8181818 L16,9.18181818 C16,7.94545455 15.0545455,7 13.8181818,7 L12,7 Z M8,1 C10,1 10.9090909,2.76363636 10.9090909,4.36363636 L11,7 L5,7 L5.09090909,4.36363636 C5.09090909,2.76363636 6,1 8,1 Z" id="path-1"></path>
    </defs>
    <g id="Symbols" stroke="none" stroke-width="1" fill="none" fill-rule="evenodd">
        <g id="icon/16/密码">
            <g id="Password-Icon">
                <use fill="#F7F8FA" fill-rule="evenodd" xlink:href="#path-1"></use>
                <path stroke="#D3D6E0" stroke-width="1" d="M11.5,7.5 L11.5,4.36363636 C11.5,2.14918522 10.0403763,0.5 8,0.5 C5.93028037,0.5 4.5,2.04637455 4.5,4.22727273 L4.5,7.5 L2.18181818,7.5 C1.22159692,7.5 0.5,8.22159692 0.5,9.18181818 L0.5,13.8181818 C0.5,14.7784031 1.22159692,15.5 2.18181818,15.5 L13.8181818,15.5 C14.7784031,15.5 15.5,14.7784031 15.5,13.8181818 L15.5,9.18181818 C15.5,8.22159692 14.7784031,7.5 13.8181818,7.5 L11.5,7.5 Z M8,0.5 C10.1113524,0.5 11.4090909,2.24267748 11.4087939,4.34640523 L11.5175386,7.5 L4.48246144,7.5 L4.500297,6.98276886 L4.59090909,4.36363636 C4.59090909,2.24267748 5.88864764,0.5 8,0.5 Z"></path>
            </g>
        </g>
    </g>
</svg>