<?xml version="1.0" encoding="UTF-8"?>
<svg width="16px" height="16px" viewBox="0 0 16 16" version="1.1" xmlns="http://www.w3.org/2000/svg" xmlns:xlink="http://www.w3.org/1999/xlink">
    <!-- Generator: Sketch 48.1 (47250) - http://www.bohemiancoding.com/sketch -->
    <title>icon/16/可见</title>
    <desc>Created with Sketch.</desc>
    <defs></defs>
    <g id="Symbols" stroke="none" stroke-width="1" fill="none" fill-rule="evenodd">
        <g id="icon/16/可见" fill="#A1A6BB">
            <path d="M0,8 C0,8 2.66666667,2 8,2 C13.3333333,2 16,8 16,8 C16,8 13.3333333,14 8,14 C2.66666667,14 0,8 0,8 Z M1.53333333,8 C2.26666667,9.33333333 4.53333333,12.6666667 8,12.6666667 C11.5333333,12.6666667 13.7333333,9.33333333 14.4666667,8 C13.7333333,6.66666667 11.5333333,3.33333333 8,3.33333333 C4.46666667,3.33333333 2.26666667,6.66666667 1.53333333,8 Z M5.33333333,8 C5.33333333,6.53333333 6.53333333,5.33333333 8,5.33333333 C9.46666667,5.33333333 10.6666667,6.53333333 10.6666667,8 C10.6666667,9.46666667 9.46666667,10.6666667 8,10.6666667 C6.53333333,10.6666667 5.33333333,9.46666667 5.33333333,8 Z M6.66666667,8 C6.66666667,8.73333333 7.26666667,9.33333333 8,9.33333333 C8.73333333,9.33333333 9.33333333,8.73333333 9.33333333,8 C9.33333333,7.26666667 8.73333333,6.66666667 8,6.66666667 C7.26666667,6.66666667 6.66666667,7.26666667 6.66666667,8 Z" id="Show-Password-Icon"></path>
        </g>
    </g>
</svg>