<?xml version="1.0" encoding="UTF-8"?>
<svg width="48px" height="48px" viewBox="0 0 48 48" version="1.1" xmlns="http://www.w3.org/2000/svg" xmlns:xlink="http://www.w3.org/1999/xlink">
    <!-- Generator: Sketch 49.3 (51167) - http://www.bohemiancoding.com/sketch -->
    <title>icon/48/通行证</title>
    <desc>Created with Sketch.</desc>
    <defs></defs>
    <g id="icon/48/通行证" stroke="none" stroke-width="1" fill="none" fill-rule="evenodd">
        <path d="M24,48 C10.745166,48 0,37.254834 0,24 C0,10.745166 10.745166,0 24,0 C37.254834,0 48,10.745166 48,24 C48,37.254834 37.254834,48 24,48 Z" id="Path" fill="#F0F2FA"></path>
        <path d="M24,46 C36.1502645,46 46,36.1502645 46,24 C46,11.8497355 36.1502645,2 24,2 C11.8497355,2 2,11.8497355 2,24 C2,36.1502645 11.8497355,46 24,46 Z" id="base" fill="#F7F8FA" fill-rule="nonzero"></path>
        <path d="M18.588854,24.8125765 C17.9237615,24.2623128 17.5,23.4306438 17.5,22.5 C17.5,20.8431458 18.8431458,19.5 20.5,19.5 C22.1568542,19.5 23.5,20.8431458 23.5,22.5 C23.5,24.1568542 22.1568542,25.5 20.5,25.5 C20.1327493,25.5 19.7809115,25.4340098 19.4556973,25.31324 L18.3223138,27.5 L22.6816606,27.5 L22.3657324,26.8839667 C22.2397197,26.6382526 22.3367569,26.3369085 22.582471,26.2108958 C22.828185,26.0848831 23.1295291,26.1819203 23.2555418,26.4276344 L23.9449047,27.7718339 C24.1155398,28.1045579 23.8739273,28.5 23.5,28.5 L17.5,28.5 C17.1251286,28.5 16.8835812,28.1027445 17.0560819,27.7699201 L18.588854,24.8125765 Z M14.991155,16 L33.008845,16 C34.1103261,16 35,16.895478 35,18.0001062 L35,30.9998938 C35,32.1099416 34.1085295,33 33.008845,33 L14.991155,33 C13.8896739,33 13,32.104522 13,30.9998938 L13,18.0001062 C13,16.8900584 13.8914705,16 14.991155,16 Z M15.9933977,31 L32.0066023,31 C32.5550537,31 33,30.5529553 33,30.0014977 L33,18.9985023 C33,18.4474894 32.5552407,18 32.0066023,18 L15.9933977,18 C15.4449463,18 15,18.4470447 15,18.9985023 L15,30.0014977 C15,30.5525106 15.4447593,31 15.9933977,31 Z M28.504611,21 C28.7782068,21 29,21.2319336 29,21.5 C29,21.7761424 28.7842474,22 28.504611,22 L26.495389,22 C26.2217932,22 26,21.7680664 26,21.5 C26,21.2238576 26.2157526,21 26.495389,21 L28.504611,21 Z M31.5089948,24 C31.7801695,24 32,24.2319336 32,24.5 C32,24.7761424 31.7721195,25 31.5089948,25 L26.4910052,25 C26.2198305,25 26,24.7680664 26,24.5 C26,24.2238576 26.2278805,24 26.4910052,24 L31.5089948,24 Z M31.5089948,27 C31.7801695,27 32,27.2319336 32,27.5 C32,27.7761424 31.7721195,28 31.5089948,28 L26.4910052,28 C26.2198305,28 26,27.7680664 26,27.5 C26,27.2238576 26.2278805,27 26.4910052,27 L31.5089948,27 Z M20.5,24.5 C21.6045695,24.5 22.5,23.6045695 22.5,22.5 C22.5,21.3954305 21.6045695,20.5 20.5,20.5 C19.3954305,20.5 18.5,21.3954305 18.5,22.5 C18.5,23.6045695 19.3954305,24.5 20.5,24.5 Z" id="Shape" fill="#61708F"></path>
    </g>
</svg>