<?xml version="1.0" encoding="UTF-8"?>
<svg width="16px" height="16px" viewBox="0 0 16 16" version="1.1" xmlns="http://www.w3.org/2000/svg" xmlns:xlink="http://www.w3.org/1999/xlink">
    <!-- Generator: Sketch 48.1 (47250) - http://www.bohemiancoding.com/sketch -->
    <title>icon/16/不可见</title>
    <desc>Created with Sketch.</desc>
    <defs></defs>
    <g id="Symbols" stroke="none" stroke-width="1" fill="none" fill-rule="evenodd">
        <g id="icon/16/不可见" fill="#A1A6BB">
            <path d="M11.4622697,2.91640997 L10.4696588,3.9090209 C9.73700035,3.55590216 8.91301394,3.33333333 8,3.33333333 C4.46666667,3.33333333 2.26666667,6.66666667 1.53333333,8 C1.88849696,8.64575204 2.60331937,9.76062424 3.63993366,10.738746 L2.67765035,11.7010293 C0.892550117,10.0082378 0,8 0,8 C0,8 2.66666667,2 8,2 C9.31659931,2 10.4706892,2.36564618 11.4622697,2.91640997 Z M13.8196773,4.80164306 C15.2732258,6.36475796 16,8 16,8 C16,8 13.3333333,14 8,14 C6.96938275,14 6.03834412,13.7759481 5.2068841,13.4144362 L6.24730486,12.3740155 C6.79139661,12.558762 7.37627546,12.6666667 8,12.6666667 C11.5333333,12.6666667 13.7333333,9.33333333 14.4666667,8 C14.1701806,7.46093449 13.6339565,6.59495341 12.8668058,5.75451458 L13.8196773,4.80164306 Z M8.89126068,5.48741898 L7.67056058,6.70811907 C7.20064517,6.82868383 6.82868383,7.20064517 6.70811931,7.67056035 L5.48741898,8.89126068 C5.38769495,8.6122536 5.33333333,8.31216698 5.33333333,8 C5.33333333,6.53333333 6.53333333,5.33333333 8,5.33333333 C8.31216698,5.33333333 8.6122536,5.38769495 8.89126068,5.48741898 Z M10.6662902,7.95503014 C10.6665408,7.96999147 10.6666667,7.98498175 10.6666667,8 C10.6666667,9.46666667 9.46666667,10.6666667 8,10.6666667 C7.98498182,10.6666667 7.96999161,10.6665408 7.95503035,10.6662902 L10.666294,7.9550263 Z M14.1568542,2.34314575 C14.3521164,2.5384079 14.3521164,2.85499039 14.1568542,3.05025253 L3.55025253,13.6568542 C3.35499039,13.8521164 3.0384079,13.8521164 2.84314575,13.6568542 C2.6478836,13.4615921 2.6478836,13.1450096 2.84314575,12.9497475 L13.4497475,2.34314575 C13.6450096,2.1478836 13.9615921,2.1478836 14.1568542,2.34314575 Z" id="Show-Password-Icon"></path>
        </g>
    </g>
</svg>