<?xml version="1.0" encoding="UTF-8"?>
<svg width="16px" height="16px" viewBox="0 0 16 16" version="1.1" xmlns="http://www.w3.org/2000/svg" xmlns:xlink="http://www.w3.org/1999/xlink">
    <!-- Generator: Sketch 48.1 (47250) - http://www.bohemiancoding.com/sketch -->
    <title>icon/16/账号</title>
    <desc>Created with Sketch.</desc>
    <defs>
        <path d="M12,6.26086957 L12,4.17391304 C12,1.87826087 10.2,0 8,0 C5.8,0 4,1.87826087 4,4.17391304 L4,6.26086957 C4,7.44347826 4.46666667,8.48695652 5.2,9.25217391 C2.13333333,9.73913043 0,11.0608696 0,12.5217391 L0,13.9130435 C0,15.0956522 0.866666667,16 2,16 L14,16 C15.1333333,16 16,15.0956522 16,13.9130435 L16,12.5217391 C16,11.0608696 13.8,9.73913043 10.8,9.25217391 C11.5333333,8.48695652 12,7.44347826 12,6.26086957 Z" id="path-1"></path>
    </defs>
    <g id="icon/16/账号" stroke="none" stroke-width="1" fill="none" fill-rule="evenodd">
        <g id="User-Icon">
            <g>
                <use fill="#F7F8FA" fill-rule="evenodd" xlink:href="#path-1"></use>
                <path stroke="#D3D6E0" stroke-width="1" d="M11.5,6.26086957 L11.5,4.17391304 C11.5,2.14975479 9.91898499,0.5 8,0.5 C6.08101501,0.5 4.5,2.14975479 4.5,4.17391304 L4.5,6.26086957 C4.5,7.26964945 4.88438423,8.20019354 5.5609941,8.90622123 L6.22215652,9.59612984 L5.27841268,9.74598709 C2.4129634,10.2009923 0.5,11.3986737 0.5,12.5217391 L0.5,13.9130435 C0.5,14.8241583 1.14768167,15.5 2,15.5 L14,15.5 C14.8523183,15.5 15.5,14.8241583 15.5,13.9130435 L15.5,12.5217391 C15.5,11.4145836 13.5508335,10.20523 10.7198891,9.74571443 L9.78060278,9.59325057 L10.4390059,8.90622123 C11.1156158,8.20019354 11.5,7.26964945 11.5,6.26086957 Z"></path>
            </g>
        </g>
    </g>
</svg>