<?xml version="1.0" encoding="UTF-8"?>
<svg width="16px" height="16px" viewBox="0 0 16 16" version="1.1" xmlns="http://www.w3.org/2000/svg" xmlns:xlink="http://www.w3.org/1999/xlink">
    <!-- Generator: Sketch 48.1 (47250) - http://www.bohemiancoding.com/sketch -->
    <title>icon/16/手机号</title>
    <desc>Created with Sketch.</desc>
    <defs>
        <path d="M4.0085302,0 L11.9914698,0 C13.0980496,0 14,0.892771196 14,1.99406028 L14,14.0059397 C14,15.1054862 13.1007504,16 11.9914698,16 L4.0085302,16 C2.90195036,16 2,15.1072288 2,14.0059397 L2,1.99406028 C2,0.894513756 2.8992496,0 4.0085302,0 Z M3,13 L13,13 L13,3 L3,3 L3,13 Z" id="path-1"></path>
    </defs>
    <g id="Symbols" stroke="none" stroke-width="1" fill="none" fill-rule="evenodd">
        <g id="icon/16/手机号">
            <g id="Combined-Shape">
                <use fill="#F7F8FA" fill-rule="evenodd" xlink:href="#path-1"></use>
                <path stroke="#D3D6E0" stroke-width="1" d="M4.0085302,0.5 C3.1752588,0.5 2.5,1.17079874 2.5,1.99406028 L2.5,14.0059397 C2.5,14.829244 3.17625092,15.5 4.0085302,15.5 L11.9914698,15.5 C12.8247412,15.5 13.5,14.8292013 13.5,14.0059397 L13.5,1.99406028 C13.5,1.17075605 12.8237491,0.5 11.9914698,0.5 L4.0085302,0.5 Z M2.5,13.5 L2.5,2.5 L13.5,2.5 L13.5,13.5 L2.5,13.5 Z"></path>
            </g>
            <polygon id="Path" fill="#F7F8FA" points="3 13 3 3 13 3 13 13"></polygon>
        </g>
    </g>
</svg>