<?xml version="1.0" encoding="UTF-8"?>
<svg width="48px" height="48px" viewBox="0 0 48 48" version="1.1" xmlns="http://www.w3.org/2000/svg" xmlns:xlink="http://www.w3.org/1999/xlink">
    <!-- Generator: Sketch 48.1 (47250) - http://www.bohemiancoding.com/sketch -->
    <title>icon/48/微信</title>
    <desc>Created with Sketch.</desc>
    <defs>
        <circle id="path-1" cx="24" cy="24" r="24"></circle>
    </defs>
    <g id="icon/48/微信" stroke="none" stroke-width="1" fill="none" fill-rule="evenodd">
        <g>
            <g id="base">
                <use fill="#EBFFF5" fill-rule="evenodd" xlink:href="#path-1"></use>
                <circle stroke="#DCF5E9" stroke-width="2" cx="24" cy="24" r="23"></circle>
            </g>
            <path d="M33.6637915,33.2 L31.3334235,31.9466464 C30.4833031,32.1557593 29.6299381,32.3642104 28.7843604,32.3642104 C24.7420707,32.3642104 21.5589866,29.6516992 21.5589866,26.3118495 C21.5589866,22.9759702 24.7420707,20.2568415 28.7843604,20.2568415 C32.6014655,20.2568415 36,22.9759702 36,26.3118495 C36,28.1925415 34.7293621,29.858165 33.0245789,31.1141656 L33.6637915,33.2 Z M26.4423113,23.5986765 C26.019198,23.5986765 25.59284,24.0175639 25.59284,24.4324809 C25.59284,24.8546771 26.019198,25.2676087 26.4423113,25.2676087 C27.0847687,25.2676087 27.5046373,24.8546771 27.5046373,24.4324809 C27.5046373,24.0175639 27.0847687,23.5986765 26.4423113,23.5986765 L26.4423113,23.5986765 Z M31.1147284,23.5986765 C30.6948598,23.5986765 30.2704486,24.0175639 30.2704486,24.4324809 C30.2704486,24.8546771 30.6948598,25.2676087 31.1147284,25.2676087 C31.7513452,25.2676087 32.1777033,24.8546771 32.1777033,24.4324809 C32.1777033,24.0175639 31.7513452,23.5986765 31.1147284,23.5986765 L31.1147284,23.5986765 Z M21.0249033,26.4117736 C21.0249033,27.0172744 21.1209475,27.6015992 21.2870778,28.1594541 C21.0249033,28.1799683 20.760782,28.1925415 20.4940648,28.1925415 C19.4336857,28.1925415 18.5809696,27.9801199 17.5179948,27.7743158 L14.5490631,29.2361205 L15.3985345,26.7274281 C13.2712868,25.2676087 12,23.3855932 12,21.0952781 C12,17.1261046 15.8242436,14 20.4940648,14 C24.6713355,14 28.3300976,16.4974426 29.0653544,19.8578066 C28.7947435,19.8286896 28.5221859,19.8094989 28.2470324,19.8094989 C24.2112322,19.8094989 21.0249033,22.7668574 21.0249033,26.4117736 L21.0249033,26.4117736 Z M17.734094,17.5476391 C17.0974772,17.5476391 16.4550199,17.9605708 16.4550199,18.588571 C16.4550199,19.2139243 17.0974772,19.6328117 17.734094,19.6328117 C18.3713598,19.6328117 18.7944731,19.2139243 18.7944731,18.588571 C18.7944731,17.9605708 18.3713598,17.5476391 17.734094,17.5476391 L17.734094,17.5476391 Z M23.6790958,17.5476391 C23.042479,17.5476391 22.4045643,17.9605708 22.4045643,18.588571 C22.4045643,19.2139243 23.042479,19.6328117 23.6790958,19.6328117 C24.3189574,19.6328117 24.7420707,19.2139243 24.7420707,18.588571 C24.7420707,17.9605708 24.3189574,17.5476391 23.6790958,17.5476391 L23.6790958,17.5476391 Z" id="Shape" fill="#3DCC85"></path>
        </g>
    </g>
</svg>