<?xml version="1.0" encoding="UTF-8"?>
<svg width="20px" height="18px" viewBox="0 0 20 18" version="1.1" xmlns="http://www.w3.org/2000/svg" xmlns:xlink="http://www.w3.org/1999/xlink">
    <!-- Generator: Sketch 52.6 (67491) - http://www.bohemiancoding.com/sketch -->
    <title>路径</title>
    <desc>Created with Sketch.</desc>
    <g id="Page-1" stroke="none" stroke-width="1" fill="none" fill-rule="evenodd">
        <g id="书单详情" transform="translate(-58.000000, -31.000000)" fill="#000000" fill-rule="nonzero">
            <g id="navbar">
                <path d="M59,41 C58.0804829,41 57.6483805,39.8634846 58.3356362,39.2525907 L67.3356362,31.2525907 C67.7145222,30.9158031 68.2854778,30.9158031 68.6643638,31.2525907 L77.6643638,39.2525907 C78.3516195,39.8634846 77.9195171,41 77,41 L75,41 L75,48 C75,48.5522847 74.5522847,49 74,49 L69,49 C68.4477153,49 68,48.5522847 68,48 L68,44 L67,44 L67,48 C67,48.5522847 66.5522847,49 66,49 L62,49 C61.4477153,49 61,48.5522847 61,48 L61,41 L59,41 Z M61.6301993,39 L62,39 C62.5522847,39 63,39.4477153 63,40 L63,47 L65,47 L65,43 C65,42.4477153 65.4477153,42 66,42 L69,42 C69.5522847,42 70,42.4477153 70,43 L70,47 L73,47 L73,40 C73,39.4477153 73.4477153,39 74,39 L74.3698007,39 L68,33.337955 L61.6301993,39 Z" id="路径"></path>
            </g>
        </g>
    </g>
</svg>